<mxfile host="app.diagrams.net" modified="2022-11-02T21:33:52.833Z" agent="5.0 (Windows NT 10.0; Win64; x64) AppleWebKit/537.36 (KHTML, like Gecko) Chrome/107.0.0.0 Safari/537.36" etag="qHfgZq1NYjcrtLBzcW1-" version="20.5.1" type="github">
  <diagram id="Nigt3YukH3JXRltVO2u2" name="Page-1">
    <mxGraphModel dx="2241" dy="2044" grid="1" gridSize="10" guides="1" tooltips="1" connect="1" arrows="1" fold="1" page="1" pageScale="1" pageWidth="827" pageHeight="1169" math="0" shadow="0">
      <root>
        <mxCell id="0" />
        <mxCell id="1" parent="0" />
        <mxCell id="gX__ZOAHCNAK3Sga8Ftl-28" style="edgeStyle=orthogonalEdgeStyle;orthogonalLoop=1;jettySize=auto;html=1;entryX=0.5;entryY=0;entryDx=0;entryDy=0;curved=1;" parent="1" source="gX__ZOAHCNAK3Sga8Ftl-7" target="gX__ZOAHCNAK3Sga8Ftl-11" edge="1">
          <mxGeometry relative="1" as="geometry" />
        </mxCell>
        <mxCell id="gX__ZOAHCNAK3Sga8Ftl-113" style="edgeStyle=orthogonalEdgeStyle;curved=1;orthogonalLoop=1;jettySize=auto;html=1;entryX=0;entryY=0.5;entryDx=0;entryDy=0;" parent="1" source="gX__ZOAHCNAK3Sga8Ftl-7" target="gX__ZOAHCNAK3Sga8Ftl-111" edge="1">
          <mxGeometry relative="1" as="geometry" />
        </mxCell>
        <mxCell id="gX__ZOAHCNAK3Sga8Ftl-7" value="ENTRY 1" style="whiteSpace=wrap;html=1;aspect=fixed;rounded=1;fillColor=#b0e3e6;strokeColor=#0e8088;" parent="1" vertex="1">
          <mxGeometry x="236" width="80" height="80" as="geometry" />
        </mxCell>
        <mxCell id="gX__ZOAHCNAK3Sga8Ftl-35" style="edgeStyle=orthogonalEdgeStyle;curved=1;orthogonalLoop=1;jettySize=auto;html=1;entryX=1;entryY=0.5;entryDx=0;entryDy=0;exitX=0.5;exitY=0;exitDx=0;exitDy=0;" parent="1" source="gX__ZOAHCNAK3Sga8Ftl-8" target="gX__ZOAHCNAK3Sga8Ftl-12" edge="1">
          <mxGeometry relative="1" as="geometry" />
        </mxCell>
        <mxCell id="gX__ZOAHCNAK3Sga8Ftl-57" style="edgeStyle=orthogonalEdgeStyle;curved=1;orthogonalLoop=1;jettySize=auto;html=1;entryX=0.5;entryY=0;entryDx=0;entryDy=0;exitX=0.5;exitY=1;exitDx=0;exitDy=0;" parent="1" source="gX__ZOAHCNAK3Sga8Ftl-8" target="gX__ZOAHCNAK3Sga8Ftl-53" edge="1">
          <mxGeometry relative="1" as="geometry" />
        </mxCell>
        <mxCell id="gX__ZOAHCNAK3Sga8Ftl-8" value="ENTRY 2" style="whiteSpace=wrap;html=1;aspect=fixed;rounded=1;fillColor=#fad7ac;strokeColor=#b46504;" parent="1" vertex="1">
          <mxGeometry x="747" y="236" width="80" height="80" as="geometry" />
        </mxCell>
        <mxCell id="gX__ZOAHCNAK3Sga8Ftl-33" style="edgeStyle=orthogonalEdgeStyle;curved=1;orthogonalLoop=1;jettySize=auto;html=1;entryX=0.5;entryY=1;entryDx=0;entryDy=0;" parent="1" source="gX__ZOAHCNAK3Sga8Ftl-9" target="gX__ZOAHCNAK3Sga8Ftl-13" edge="1">
          <mxGeometry relative="1" as="geometry" />
        </mxCell>
        <mxCell id="gX__ZOAHCNAK3Sga8Ftl-120" style="edgeStyle=orthogonalEdgeStyle;curved=1;orthogonalLoop=1;jettySize=auto;html=1;entryX=1;entryY=0.5;entryDx=0;entryDy=0;" parent="1" source="gX__ZOAHCNAK3Sga8Ftl-9" target="gX__ZOAHCNAK3Sga8Ftl-77" edge="1">
          <mxGeometry relative="1" as="geometry" />
        </mxCell>
        <mxCell id="gX__ZOAHCNAK3Sga8Ftl-9" value="ENTRY 3" style="whiteSpace=wrap;html=1;aspect=fixed;rounded=1;fillColor=#d0cee2;strokeColor=#56517e;" parent="1" vertex="1">
          <mxGeometry x="511" y="747" width="80" height="80" as="geometry" />
        </mxCell>
        <mxCell id="gX__ZOAHCNAK3Sga8Ftl-30" style="edgeStyle=orthogonalEdgeStyle;orthogonalLoop=1;jettySize=auto;html=1;entryX=0;entryY=0.5;entryDx=0;entryDy=0;curved=1;" parent="1" source="gX__ZOAHCNAK3Sga8Ftl-10" target="gX__ZOAHCNAK3Sga8Ftl-14" edge="1">
          <mxGeometry relative="1" as="geometry" />
        </mxCell>
        <mxCell id="gX__ZOAHCNAK3Sga8Ftl-119" style="edgeStyle=orthogonalEdgeStyle;curved=1;orthogonalLoop=1;jettySize=auto;html=1;entryX=0.5;entryY=1;entryDx=0;entryDy=0;" parent="1" source="gX__ZOAHCNAK3Sga8Ftl-10" target="gX__ZOAHCNAK3Sga8Ftl-86" edge="1">
          <mxGeometry relative="1" as="geometry" />
        </mxCell>
        <mxCell id="gX__ZOAHCNAK3Sga8Ftl-10" value="ENTRY 4" style="whiteSpace=wrap;html=1;aspect=fixed;rounded=1;fillColor=#bac8d3;strokeColor=#23445d;" parent="1" vertex="1">
          <mxGeometry y="511" width="80" height="80" as="geometry" />
        </mxCell>
        <mxCell id="gX__ZOAHCNAK3Sga8Ftl-85" style="edgeStyle=orthogonalEdgeStyle;curved=1;orthogonalLoop=1;jettySize=auto;html=1;entryX=0.5;entryY=0;entryDx=0;entryDy=0;" parent="1" source="gX__ZOAHCNAK3Sga8Ftl-11" target="gX__ZOAHCNAK3Sga8Ftl-81" edge="1">
          <mxGeometry relative="1" as="geometry" />
        </mxCell>
        <mxCell id="gX__ZOAHCNAK3Sga8Ftl-87" style="edgeStyle=orthogonalEdgeStyle;curved=1;orthogonalLoop=1;jettySize=auto;html=1;entryX=0.5;entryY=0;entryDx=0;entryDy=0;exitX=0;exitY=0.5;exitDx=0;exitDy=0;" parent="1" source="gX__ZOAHCNAK3Sga8Ftl-11" target="gX__ZOAHCNAK3Sga8Ftl-86" edge="1">
          <mxGeometry relative="1" as="geometry" />
        </mxCell>
        <mxCell id="gX__ZOAHCNAK3Sga8Ftl-11" value="ZONE" style="whiteSpace=wrap;html=1;aspect=fixed;rounded=1;strokeColor=default;strokeWidth=2;" parent="1" vertex="1">
          <mxGeometry x="80" y="80" width="80" height="80" as="geometry" />
        </mxCell>
        <mxCell id="gX__ZOAHCNAK3Sga8Ftl-114" style="edgeStyle=orthogonalEdgeStyle;curved=1;orthogonalLoop=1;jettySize=auto;html=1;entryX=1;entryY=0.5;entryDx=0;entryDy=0;exitX=0.5;exitY=0;exitDx=0;exitDy=0;" parent="1" source="gX__ZOAHCNAK3Sga8Ftl-12" target="gX__ZOAHCNAK3Sga8Ftl-111" edge="1">
          <mxGeometry relative="1" as="geometry" />
        </mxCell>
        <mxCell id="GLXU7i8PXXEUA1Ecrr9V-1" style="edgeStyle=orthogonalEdgeStyle;curved=1;orthogonalLoop=1;jettySize=auto;html=1;entryX=1;entryY=0.5;entryDx=0;entryDy=0;exitX=0.5;exitY=1;exitDx=0;exitDy=0;" edge="1" parent="1" source="gX__ZOAHCNAK3Sga8Ftl-12" target="gX__ZOAHCNAK3Sga8Ftl-58">
          <mxGeometry relative="1" as="geometry" />
        </mxCell>
        <mxCell id="gX__ZOAHCNAK3Sga8Ftl-12" value="ZONE" style="whiteSpace=wrap;html=1;aspect=fixed;rounded=1;strokeWidth=2;" parent="1" vertex="1">
          <mxGeometry x="667" y="80" width="80" height="80" as="geometry" />
        </mxCell>
        <mxCell id="gX__ZOAHCNAK3Sga8Ftl-54" style="edgeStyle=orthogonalEdgeStyle;curved=1;orthogonalLoop=1;jettySize=auto;html=1;entryX=0.5;entryY=1;entryDx=0;entryDy=0;exitX=1;exitY=0.5;exitDx=0;exitDy=0;" parent="1" source="gX__ZOAHCNAK3Sga8Ftl-13" target="gX__ZOAHCNAK3Sga8Ftl-53" edge="1">
          <mxGeometry relative="1" as="geometry" />
        </mxCell>
        <mxCell id="gX__ZOAHCNAK3Sga8Ftl-60" style="edgeStyle=orthogonalEdgeStyle;curved=1;orthogonalLoop=1;jettySize=auto;html=1;entryX=0.5;entryY=1;entryDx=0;entryDy=0;exitX=0;exitY=0.5;exitDx=0;exitDy=0;" parent="1" source="gX__ZOAHCNAK3Sga8Ftl-13" target="gX__ZOAHCNAK3Sga8Ftl-58" edge="1">
          <mxGeometry relative="1" as="geometry" />
        </mxCell>
        <mxCell id="gX__ZOAHCNAK3Sga8Ftl-13" value="ZONE" style="whiteSpace=wrap;html=1;aspect=fixed;rounded=1;strokeWidth=2;" parent="1" vertex="1">
          <mxGeometry x="667" y="667" width="80" height="80" as="geometry" />
        </mxCell>
        <mxCell id="gX__ZOAHCNAK3Sga8Ftl-79" style="edgeStyle=orthogonalEdgeStyle;curved=1;orthogonalLoop=1;jettySize=auto;html=1;entryX=0;entryY=0.5;entryDx=0;entryDy=0;exitX=0.5;exitY=1;exitDx=0;exitDy=0;" parent="1" source="gX__ZOAHCNAK3Sga8Ftl-14" target="gX__ZOAHCNAK3Sga8Ftl-77" edge="1">
          <mxGeometry relative="1" as="geometry" />
        </mxCell>
        <mxCell id="GLXU7i8PXXEUA1Ecrr9V-2" style="edgeStyle=orthogonalEdgeStyle;curved=1;orthogonalLoop=1;jettySize=auto;html=1;entryX=0;entryY=0.5;entryDx=0;entryDy=0;exitX=0.41;exitY=0.004;exitDx=0;exitDy=0;exitPerimeter=0;" edge="1" parent="1" source="gX__ZOAHCNAK3Sga8Ftl-14" target="gX__ZOAHCNAK3Sga8Ftl-81">
          <mxGeometry relative="1" as="geometry" />
        </mxCell>
        <mxCell id="gX__ZOAHCNAK3Sga8Ftl-14" value="ZONE" style="whiteSpace=wrap;html=1;aspect=fixed;rounded=1;strokeWidth=2;" parent="1" vertex="1">
          <mxGeometry x="80" y="667" width="80" height="80" as="geometry" />
        </mxCell>
        <mxCell id="gX__ZOAHCNAK3Sga8Ftl-62" style="edgeStyle=orthogonalEdgeStyle;curved=1;orthogonalLoop=1;jettySize=auto;html=1;entryX=1;entryY=0.5;entryDx=0;entryDy=0;" parent="1" source="gX__ZOAHCNAK3Sga8Ftl-53" target="gX__ZOAHCNAK3Sga8Ftl-61" edge="1">
          <mxGeometry relative="1" as="geometry" />
        </mxCell>
        <mxCell id="gX__ZOAHCNAK3Sga8Ftl-53" value="SPEC 2" style="whiteSpace=wrap;html=1;aspect=fixed;rounded=1;strokeWidth=2;" parent="1" vertex="1">
          <mxGeometry x="747" y="511" width="80" height="80" as="geometry" />
        </mxCell>
        <mxCell id="gX__ZOAHCNAK3Sga8Ftl-63" style="edgeStyle=orthogonalEdgeStyle;curved=1;orthogonalLoop=1;jettySize=auto;html=1;entryX=0.5;entryY=1;entryDx=0;entryDy=0;" parent="1" source="gX__ZOAHCNAK3Sga8Ftl-58" target="gX__ZOAHCNAK3Sga8Ftl-61" edge="1">
          <mxGeometry relative="1" as="geometry" />
        </mxCell>
        <mxCell id="gX__ZOAHCNAK3Sga8Ftl-98" style="edgeStyle=orthogonalEdgeStyle;curved=1;orthogonalLoop=1;jettySize=auto;html=1;exitX=0;exitY=0.5;exitDx=0;exitDy=0;entryX=1;entryY=0.5;entryDx=0;entryDy=0;" parent="1" source="gX__ZOAHCNAK3Sga8Ftl-58" target="gX__ZOAHCNAK3Sga8Ftl-92" edge="1">
          <mxGeometry relative="1" as="geometry" />
        </mxCell>
        <mxCell id="gX__ZOAHCNAK3Sga8Ftl-58" value="PERM 1" style="whiteSpace=wrap;html=1;aspect=fixed;rounded=1;strokeWidth=2;" parent="1" vertex="1">
          <mxGeometry x="511" y="511" width="80" height="80" as="geometry" />
        </mxCell>
        <mxCell id="gX__ZOAHCNAK3Sga8Ftl-109" style="edgeStyle=orthogonalEdgeStyle;curved=1;orthogonalLoop=1;jettySize=auto;html=1;entryX=1;entryY=0.5;entryDx=0;entryDy=0;" parent="1" source="gX__ZOAHCNAK3Sga8Ftl-61" target="gX__ZOAHCNAK3Sga8Ftl-106" edge="1">
          <mxGeometry relative="1" as="geometry" />
        </mxCell>
        <mxCell id="gX__ZOAHCNAK3Sga8Ftl-61" value="UNIQ" style="whiteSpace=wrap;html=1;aspect=fixed;rounded=1;strokeWidth=5;fillColor=none;strokeColor=#b46504;" parent="1" vertex="1">
          <mxGeometry x="580" y="236" width="80" height="80" as="geometry" />
        </mxCell>
        <mxCell id="gX__ZOAHCNAK3Sga8Ftl-101" style="edgeStyle=orthogonalEdgeStyle;curved=1;orthogonalLoop=1;jettySize=auto;html=1;entryX=0.5;entryY=1;entryDx=0;entryDy=0;exitX=0.5;exitY=0;exitDx=0;exitDy=0;" parent="1" source="gX__ZOAHCNAK3Sga8Ftl-77" target="gX__ZOAHCNAK3Sga8Ftl-92" edge="1">
          <mxGeometry relative="1" as="geometry" />
        </mxCell>
        <mxCell id="gX__ZOAHCNAK3Sga8Ftl-77" value="SPEC 3" style="whiteSpace=wrap;html=1;aspect=fixed;rounded=1;strokeWidth=2;" parent="1" vertex="1">
          <mxGeometry x="236" y="747" width="80" height="80" as="geometry" />
        </mxCell>
        <mxCell id="gX__ZOAHCNAK3Sga8Ftl-116" style="edgeStyle=orthogonalEdgeStyle;curved=1;orthogonalLoop=1;jettySize=auto;html=1;entryX=0;entryY=0.5;entryDx=0;entryDy=0;" parent="1" source="gX__ZOAHCNAK3Sga8Ftl-81" target="gX__ZOAHCNAK3Sga8Ftl-110" edge="1">
          <mxGeometry relative="1" as="geometry" />
        </mxCell>
        <mxCell id="gX__ZOAHCNAK3Sga8Ftl-121" style="edgeStyle=orthogonalEdgeStyle;curved=1;orthogonalLoop=1;jettySize=auto;html=1;entryX=0.5;entryY=0;entryDx=0;entryDy=0;exitX=0.5;exitY=1;exitDx=0;exitDy=0;" parent="1" source="gX__ZOAHCNAK3Sga8Ftl-81" target="gX__ZOAHCNAK3Sga8Ftl-118" edge="1">
          <mxGeometry relative="1" as="geometry" />
        </mxCell>
        <mxCell id="gX__ZOAHCNAK3Sga8Ftl-81" value="PERM 2" style="whiteSpace=wrap;html=1;aspect=fixed;rounded=1;strokeWidth=2;" parent="1" vertex="1">
          <mxGeometry x="236" y="236" width="80" height="80" as="geometry" />
        </mxCell>
        <mxCell id="gX__ZOAHCNAK3Sga8Ftl-123" style="edgeStyle=orthogonalEdgeStyle;curved=1;orthogonalLoop=1;jettySize=auto;html=1;exitX=1;exitY=0.5;exitDx=0;exitDy=0;entryX=0;entryY=0.5;entryDx=0;entryDy=0;" parent="1" source="gX__ZOAHCNAK3Sga8Ftl-86" target="gX__ZOAHCNAK3Sga8Ftl-118" edge="1">
          <mxGeometry relative="1" as="geometry" />
        </mxCell>
        <mxCell id="gX__ZOAHCNAK3Sga8Ftl-86" value="SPEC 1" style="whiteSpace=wrap;html=1;aspect=fixed;rounded=1;strokeWidth=2;" parent="1" vertex="1">
          <mxGeometry y="236" width="80" height="80" as="geometry" />
        </mxCell>
        <mxCell id="gX__ZOAHCNAK3Sga8Ftl-104" style="edgeStyle=orthogonalEdgeStyle;curved=1;orthogonalLoop=1;jettySize=auto;html=1;entryX=0.5;entryY=1;entryDx=0;entryDy=0;exitX=0;exitY=0.5;exitDx=0;exitDy=0;" parent="1" source="gX__ZOAHCNAK3Sga8Ftl-92" target="gX__ZOAHCNAK3Sga8Ftl-108" edge="1">
          <mxGeometry relative="1" as="geometry" />
        </mxCell>
        <mxCell id="gX__ZOAHCNAK3Sga8Ftl-92" value="UNIQ" style="whiteSpace=wrap;html=1;aspect=fixed;rounded=1;strokeWidth=5;fillColor=none;strokeColor=#56517e;" parent="1" vertex="1">
          <mxGeometry x="334" y="591" width="80" height="80" as="geometry" />
        </mxCell>
        <mxCell id="gX__ZOAHCNAK3Sga8Ftl-117" style="edgeStyle=orthogonalEdgeStyle;curved=1;orthogonalLoop=1;jettySize=auto;html=1;entryX=0.5;entryY=0;entryDx=0;entryDy=0;exitX=1;exitY=0.5;exitDx=0;exitDy=0;" parent="1" source="gX__ZOAHCNAK3Sga8Ftl-110" target="gX__ZOAHCNAK3Sga8Ftl-105" edge="1">
          <mxGeometry relative="1" as="geometry" />
        </mxCell>
        <mxCell id="gX__ZOAHCNAK3Sga8Ftl-110" value="UNIQ" style="whiteSpace=wrap;html=1;aspect=fixed;rounded=1;strokeWidth=5;fillColor=none;strokeColor=#0e8088;" parent="1" vertex="1">
          <mxGeometry x="414" y="156" width="80" height="80" as="geometry" />
        </mxCell>
        <mxCell id="gX__ZOAHCNAK3Sga8Ftl-115" style="edgeStyle=orthogonalEdgeStyle;curved=1;orthogonalLoop=1;jettySize=auto;html=1;exitX=0.5;exitY=1;exitDx=0;exitDy=0;entryX=0.5;entryY=0;entryDx=0;entryDy=0;" parent="1" source="gX__ZOAHCNAK3Sga8Ftl-111" target="gX__ZOAHCNAK3Sga8Ftl-110" edge="1">
          <mxGeometry relative="1" as="geometry" />
        </mxCell>
        <mxCell id="gX__ZOAHCNAK3Sga8Ftl-111" value="SPEC 3" style="whiteSpace=wrap;html=1;aspect=fixed;rounded=1;strokeWidth=2;" parent="1" vertex="1">
          <mxGeometry x="511" width="80" height="80" as="geometry" />
        </mxCell>
        <mxCell id="gX__ZOAHCNAK3Sga8Ftl-122" style="edgeStyle=orthogonalEdgeStyle;curved=1;orthogonalLoop=1;jettySize=auto;html=1;entryX=0;entryY=0.5;entryDx=0;entryDy=0;" parent="1" source="gX__ZOAHCNAK3Sga8Ftl-118" target="gX__ZOAHCNAK3Sga8Ftl-107" edge="1">
          <mxGeometry relative="1" as="geometry" />
        </mxCell>
        <mxCell id="gX__ZOAHCNAK3Sga8Ftl-118" value="UNIQ" style="whiteSpace=wrap;html=1;aspect=fixed;rounded=1;strokeWidth=5;fillColor=none;strokeColor=#23445d;" parent="1" vertex="1">
          <mxGeometry x="170" y="511" width="80" height="80" as="geometry" />
        </mxCell>
        <mxCell id="gX__ZOAHCNAK3Sga8Ftl-128" value="" style="group" parent="1" vertex="1" connectable="0">
          <mxGeometry x="333.5" y="333.5" width="160" height="160" as="geometry" />
        </mxCell>
        <mxCell id="gX__ZOAHCNAK3Sga8Ftl-105" value="" style="whiteSpace=wrap;html=1;aspect=fixed;rounded=1;strokeWidth=2;fillColor=#b0e3e6;strokeColor=#0e8088;" parent="gX__ZOAHCNAK3Sga8Ftl-128" vertex="1">
          <mxGeometry width="80" height="80" as="geometry" />
        </mxCell>
        <mxCell id="gX__ZOAHCNAK3Sga8Ftl-106" value="" style="whiteSpace=wrap;html=1;aspect=fixed;rounded=1;strokeWidth=2;fillColor=#fad7ac;strokeColor=#b46504;" parent="gX__ZOAHCNAK3Sga8Ftl-128" vertex="1">
          <mxGeometry x="80" width="80" height="80" as="geometry" />
        </mxCell>
        <mxCell id="gX__ZOAHCNAK3Sga8Ftl-107" value="" style="whiteSpace=wrap;html=1;aspect=fixed;rounded=1;strokeWidth=2;fillColor=#bac8d3;strokeColor=#23445d;" parent="gX__ZOAHCNAK3Sga8Ftl-128" vertex="1">
          <mxGeometry y="80" width="80" height="80" as="geometry" />
        </mxCell>
        <mxCell id="gX__ZOAHCNAK3Sga8Ftl-108" value="" style="whiteSpace=wrap;html=1;aspect=fixed;rounded=1;strokeWidth=2;fillColor=#d0cee2;strokeColor=#56517e;" parent="gX__ZOAHCNAK3Sga8Ftl-128" vertex="1">
          <mxGeometry x="80" y="80" width="80" height="80" as="geometry" />
        </mxCell>
        <mxCell id="gX__ZOAHCNAK3Sga8Ftl-129" value="747+80=827" style="text;html=1;strokeColor=none;fillColor=none;align=center;verticalAlign=middle;whiteSpace=wrap;rounded=0;strokeWidth=5;" parent="1" vertex="1">
          <mxGeometry x="1010" y="130" width="60" height="30" as="geometry" />
        </mxCell>
        <mxCell id="gX__ZOAHCNAK3Sga8Ftl-130" value="827/4=206.75" style="text;html=1;strokeColor=none;fillColor=none;align=center;verticalAlign=middle;whiteSpace=wrap;rounded=0;strokeWidth=5;" parent="1" vertex="1">
          <mxGeometry x="1060" y="60" width="60" height="30" as="geometry" />
        </mxCell>
      </root>
    </mxGraphModel>
  </diagram>
</mxfile>
